<?xml version="1.0" standalone="no"?>
<!DOCTYPE svg PUBLIC "-//W3C//DTD SVG 20010904//EN"
 "http://www.w3.org/TR/2001/REC-SVG-20010904/DTD/svg10.dtd">
<svg version="1.0" xmlns="http://www.w3.org/2000/svg"
 width="2220.000000pt" height="452.000000pt" viewBox="0 0 2220.000000 452.000000"
 preserveAspectRatio="xMidYMid meet">

<g transform="translate(0.000000,452.000000) scale(0.100000,-0.100000)"
fill="#000000" stroke="none">
<path d="M3135 3660 c-93 -25 -635 -210 -1012 -346 l-303 -109 0 -957 0 -957
220 -72 c121 -40 222 -71 225 -68 8 9 24 593 31 1165 l7 561 61 20 c34 12 197
68 362 126 319 110 463 153 487 144 27 -10 38 -108 44 -367 l5 -255 -218 -82
c-121 -45 -231 -87 -247 -92 l-27 -11 2 -707 3 -707 145 -48 c233 -78 239 -77
890 156 660 235 789 288 855 349 l45 42 11 115 c6 66 13 427 16 846 l5 732
-58 27 c-185 85 -384 158 -401 146 -37 -25 -45 -159 -52 -900 l-6 -703 -215
-80 c-465 -171 -705 -252 -719 -244 -23 15 -31 121 -29 370 l3 259 228 96 227
95 -2 669 -3 670 -110 44 c-135 55 -280 93 -349 92 -28 0 -82 -9 -121 -19z"/>
<path d="M16820 3292 l0 -58 111 -43 c61 -24 120 -52 130 -62 18 -18 19 -36
19 -245 l0 -226 -22 16 c-137 99 -173 111 -338 110 -122 0 -142 -2 -208 -27
-86 -32 -171 -83 -230 -141 -98 -92 -182 -251 -218 -411 -27 -119 -25 -342 4
-455 56 -212 172 -357 345 -427 49 -20 86 -26 176 -30 199 -9 308 30 433 158
42 44 80 79 83 79 3 0 5 -54 5 -120 0 -89 3 -120 13 -120 6 0 110 12 230 27
l217 27 0 56 0 56 -91 38 c-49 21 -97 45 -105 53 -12 12 -14 141 -14 909 l0
894 -270 0 -270 0 0 -58z m106 -702 c32 -6 80 -18 107 -27 l47 -17 0 -454 0
-453 -27 -35 c-54 -69 -174 -114 -303 -114 -221 1 -356 139 -406 415 -57 322
60 604 281 675 69 22 206 26 301 10z"/>
<path d="M19400 3293 l0 -58 122 -44 c66 -24 129 -52 139 -62 18 -18 19 -52
19 -814 0 -776 0 -795 -20 -812 -10 -10 -69 -32 -130 -48 l-110 -29 0 -53 0
-53 395 0 395 0 0 53 0 54 -106 28 c-58 15 -115 36 -127 46 l-22 17 -3 916 -2
916 -275 0 -275 0 0 -57z"/>
<path d="M7770 3151 l0 -59 38 -12 c103 -34 193 -73 202 -90 6 -12 10 -280 10
-739 0 -623 -2 -722 -15 -734 -8 -9 -64 -32 -125 -52 l-110 -37 0 -54 0 -54
400 0 400 0 0 53 0 53 -115 37 c-77 26 -120 45 -130 60 -13 18 -15 71 -15 329
0 170 2 308 4 308 9 0 250 -50 251 -53 36 -54 506 -701 524 -721 54 -59 84
-66 324 -66 l218 0 -3 52 -3 52 -120 37 c-79 25 -131 48 -152 66 -30 27 -502
646 -506 664 -1 5 27 21 63 36 247 100 378 323 340 582 -20 138 -105 251 -235
312 -152 72 -318 89 -877 89 l-368 0 0 -59z m895 -132 c132 -24 223 -95 265
-205 18 -50 21 -74 18 -154 -4 -118 -34 -186 -109 -254 -78 -70 -138 -89 -303
-94 -76 -2 -158 -1 -182 3 l-44 6 0 361 0 361 148 -6 c81 -4 174 -12 207 -18z"/>
<path d="M9800 3151 l0 -59 68 -23 c119 -39 171 -66 177 -91 3 -13 4 -346 3
-741 -3 -625 -5 -719 -18 -727 -8 -5 -63 -26 -122 -46 l-108 -36 0 -54 0 -54
750 0 750 0 0 310 0 310 -89 0 -89 0 -6 -37 c-3 -21 -15 -114 -26 -207 -11
-93 -25 -176 -31 -183 -9 -10 -84 -13 -365 -13 l-354 0 0 740 c0 703 1 741 18
758 10 10 69 36 130 58 l112 39 0 57 0 58 -400 0 -400 0 0 -59z"/>
<path d="M12320 2768 c-95 -33 -151 -70 -228 -148 -38 -39 -72 -70 -75 -70 -4
0 -7 52 -7 115 0 85 -3 115 -12 115 -7 1 -111 -12 -230 -27 l-218 -28 0 -55 0
-55 48 -19 c113 -46 150 -68 161 -95 8 -18 11 -169 9 -505 l-3 -478 -23 -18
c-13 -11 -61 -32 -108 -47 l-84 -27 0 -53 0 -53 330 0 330 0 0 53 0 53 -79 37
c-57 26 -80 43 -85 59 -3 13 -6 226 -6 474 l0 451 38 30 c89 72 181 98 323 91
162 -7 231 -64 258 -213 7 -36 11 -210 11 -451 l0 -392 -32 -20 c-18 -10 -59
-30 -90 -43 l-58 -24 0 -52 0 -53 310 0 310 0 0 53 0 52 -77 40 c-57 29 -79
47 -84 65 -4 14 -7 224 -8 467 l-1 442 43 34 c91 75 184 102 323 95 144 -7
211 -53 252 -175 23 -71 31 -842 8 -877 -8 -14 -49 -38 -95 -57 l-81 -34 0
-52 0 -53 330 0 330 0 0 53 0 52 -78 29 c-130 48 -116 -13 -123 524 -5 390 -8
475 -22 513 -69 202 -210 299 -437 299 -171 0 -269 -47 -403 -190 l-73 -79
-23 52 c-35 76 -112 147 -196 181 -60 25 -87 29 -190 32 -105 4 -128 1 -185
-18z"/>
<path d="M14885 2781 c-274 -54 -465 -234 -545 -516 -33 -115 -33 -342 -1
-464 69 -263 233 -428 486 -491 124 -31 312 -25 423 14 236 82 386 249 452
506 17 65 23 114 23 210 1 364 -171 628 -468 720 -76 24 -293 36 -370 21z
m280 -184 c149 -78 229 -223 255 -464 11 -105 1 -266 -22 -363 -34 -137 -129
-260 -233 -299 -77 -29 -193 -29 -272 1 -109 40 -209 171 -248 324 -83 329
-11 664 169 779 78 49 102 55 206 51 79 -2 103 -7 145 -29z"/>
<path d="M18415 2783 c-16 -2 -59 -13 -95 -25 -167 -53 -311 -176 -392 -333
-74 -145 -92 -223 -92 -400 0 -127 4 -163 24 -235 70 -255 240 -422 488 -481
127 -31 308 -23 443 19 106 33 215 85 302 144 l57 39 0 84 c0 79 -1 85 -21 85
-11 0 -39 -13 -62 -28 -77 -52 -155 -92 -229 -119 -98 -34 -272 -43 -367 -18
-221 57 -331 210 -355 493 l-6 62 514 0 514 0 6 31 c10 54 6 171 -9 242 -58
274 -293 450 -594 446 -53 -1 -109 -4 -126 -6z m265 -182 c109 -56 159 -145
176 -313 l6 -68 -371 0 -372 0 6 38 c25 144 92 258 190 320 66 42 111 52 220
49 82 -2 108 -7 145 -26z"/>
</g>
</svg>
