<?xml version="1.0" standalone="no"?>
<!DOCTYPE svg PUBLIC "-//W3C//DTD SVG 20010904//EN"
 "http://www.w3.org/TR/2001/REC-SVG-20010904/DTD/svg10.dtd">
<svg version="1.0" xmlns="http://www.w3.org/2000/svg"
 width="102.000000pt" height="86.000000pt" viewBox="0 0 102.000000 86.000000"
 preserveAspectRatio="xMidYMid meet">

<g transform="translate(0.000000,86.000000) scale(0.100000,-0.100000)"
fill="#000000" stroke="none">
<path d="M343 707 l-143 -52 0 -207 0 -206 47 -16 c26 -9 48 -16 50 -16 1 0 4
84 5 187 l3 187 90 32 c50 18 96 33 103 33 8 1 12 -19 12 -68 l0 -68 -52 -20
-53 -20 0 -153 0 -153 42 -14 c41 -14 45 -13 185 38 156 56 179 66 190 83 4 6
8 91 8 189 l0 178 -42 19 c-24 11 -49 20 -55 20 -10 0 -13 -41 -13 -174 l0
-174 -98 -36 c-54 -20 -102 -36 -105 -36 -4 0 -7 31 -7 69 l0 68 50 21 50 21
0 144 0 145 -40 16 c-22 9 -50 16 -63 15 -12 0 -86 -24 -164 -52z"/>
</g>
</svg>
